# xmcd
#
# Track frame offsets: 
#        150
#        16030
#        30802
#        44607
#        60845
#        77790
#        96785
#        110397
#        126760
#        142755
#        155530
#
# Disc length: 2322 seconds
#
# Revision: 19
# Processed by: cddbd v1.5.2PL0 Copyright (c) Steve Scherf et al.
# Submitted via: ExactAudioCopyFreeDBPlugin 1.0
#
DISCID=7609100b
DTITLE=Alabama - Greatest Hits Vol. III
DYEAR=1994
DGENRE=Country
TTITLE0=Give Me One More Shot  1994
TTITLE1=We Can't Love Like This Anymore  1994
TTITLE2=Tennessee River  1980
TTITLE3=When We Make Love  1984
TTITLE4=If You're Gonna Play In Texas (You Gotta Have A Fiddle In The 
TTITLE4=Band)  1984
TTITLE5=There's No Way  1985
TTITLE6=Face To Face  1987
TTITLE7=Jukebox In My Mind  1990
TTITLE8=Forever's As Far As I'll Go  1990
TTITLE9=I'm In A Hurry (And Don't Know Why)  1992
TTITLE10=Angels Among Us  (Vocal Remix)  1993
EXTD=
EXTT0=
EXTT1=
EXTT2=
EXTT3=
EXTT4=
EXTT5=
EXTT6=
EXTT7=
EXTT8=
EXTT9=
EXTT10=
PLAYORDER=
